<svg xmlns="http://www.w3.org/2000/svg" width="1200" height="900" viewBox="0 0 1200 900" fill="none">
  <defs>
    <linearGradient id="bg2" x1="0" y1="0" x2="1" y2="1">
      <stop offset="0%" stop-color="#fff7f0" />
      <stop offset="50%" stop-color="#f1f5ff" />
      <stop offset="100%" stop-color="#ffffff" />
    </linearGradient>
    <linearGradient id="accent2" x1="0" y1="0" x2="1" y2="0">
      <stop offset="0%" stop-color="#cfe8ff" />
      <stop offset="100%" stop-color="#9fd8f8" />
    </linearGradient>
  </defs>
  <rect width="1200" height="900" fill="url(#bg2)" />
  <rect x="120" y="140" width="960" height="620" rx="48" fill="#ffffff" stroke="#e2e8f0" stroke-width="2" />
  <rect x="190" y="210" width="360" height="20" rx="10" fill="url(#accent2)" />
  <rect x="190" y="260" width="520" height="14" rx="7" fill="#dde7f1" />
  <rect x="190" y="290" width="480" height="14" rx="7" fill="#dde7f1" />
  <rect x="190" y="320" width="440" height="14" rx="7" fill="#dde7f1" />
  <rect x="190" y="370" width="260" height="42" rx="21" fill="#9fd8f8" />
  <text x="210" y="398" font-family="Arial, sans-serif" font-size="16" fill="#0f172a" font-weight="700">
    Graphic Design
  </text>
  <rect x="640" y="220" width="340" height="250" rx="28" fill="#f1f5f9" />
  <rect x="680" y="260" width="260" height="20" rx="10" fill="#cbd5e1" />
  <rect x="680" y="300" width="220" height="14" rx="7" fill="#d6e0ea" />
  <rect x="680" y="330" width="240" height="14" rx="7" fill="#d6e0ea" />
  <rect x="640" y="500" width="340" height="200" rx="28" fill="#fff1e6" />
  <text x="700" y="620" font-family="Arial, sans-serif" font-size="22" fill="#0f172a" font-weight="700">
    UI and UX
  </text>
</svg>
